<?xml version="1.0" standalone="no"?>
<!DOCTYPE svg PUBLIC "-//W3C//DTD SVG 20010904//EN"
 "http://www.w3.org/TR/2001/REC-SVG-20010904/DTD/svg10.dtd">
<svg version="1.0" xmlns="http://www.w3.org/2000/svg"
 width="521.000000pt" height="521.000000pt" viewBox="0 0 521.000000 521.000000"
 preserveAspectRatio="xMidYMid meet">
<metadata>
Created by potrace 1.11, written by Peter Selinger 2001-2013
</metadata>
<g transform="translate(0.000000,521.000000) scale(0.100000,-0.100000)"
fill="#000000" stroke="none">
<path d="M2379 5136 c-2 -2 -35 -7 -74 -10 -38 -4 -77 -9 -85 -11 -8 -2 -31
-7 -50 -10 -19 -3 -57 -10 -85 -15 -27 -6 -60 -12 -72 -14 -149 -29 -425 -134
-613 -233 -662 -349 -1157 -1007 -1303 -1733 -26 -125 -32 -164 -46 -295 -9
-76 -7 -448 2 -505 4 -19 11 -69 18 -110 6 -41 13 -84 14 -95 29 -185 113
-432 226 -661 191 -390 509 -753 869 -990 103 -67 102 -66 215 -128 357 -194
773 -299 1185 -300 119 0 303 9 345 18 11 2 40 7 65 10 25 3 56 8 70 11 148
29 197 41 340 87 260 83 613 269 668 352 51 75 51 164 1 238 -15 24 -422 436
-902 916 -917 916 -899 899 -940 854 -14 -15 -16 -67 -19 -412 -3 -386 -4
-396 -25 -437 -93 -172 -366 -173 -455 0 -11 22 -22 52 -24 66 -3 28 -11 493
-19 1156 -5 446 -3 461 60 528 19 20 53 46 77 59 l43 23 520 -3 c286 -1 644
-4 797 -6 l276 -3 56 -27 c62 -31 98 -71 121 -135 44 -125 -8 -263 -120 -320
l-49 -26 -381 0 c-351 0 -384 -2 -409 -19 -23 -14 -27 -22 -21 -44 8 -34 1740
-1772 1802 -1808 31 -19 57 -26 96 -26 97 -1 153 40 234 174 151 247 275 565
323 825 5 32 12 69 15 82 2 13 7 49 11 80 3 31 9 65 11 76 3 11 7 115 8 230 3
202 -7 330 -35 485 -7 36 -14 78 -17 94 -2 15 -19 80 -37 145 -104 369 -283
703 -531 991 -35 41 -192 198 -253 253 -108 97 -291 224 -467 324 -222 125
-584 245 -850 279 -22 3 -51 8 -65 11 -28 6 -515 14 -521 9z"/>
</g>
</svg>
